# xmcd
#
# Track frame offsets: 
#        150
#        18022
#        35092
#        55420
#
# Disc length: 1019 seconds
#
# Revision: 1
# Processed by: cddbd v1.5.2PL0 Copyright (c) Steve Scherf et al.
# Submitted via: ExactAudioCopy v0.99pb3
#
DISCID=2b03f904
DTITLE=Dionne Farris - Hopeless - CD Single
DYEAR=1997
DGENRE=Soul
TTITLE0=Hopeless
TTITLE1=I Know (Album Version)
TTITLE2=Don't Ever Touch Me (Again)
TTITLE3=I Wish I knew How It Would Feel To Be Free
EXTD=
EXTT0=
EXTT1=
EXTT2=
EXTT3=
PLAYORDER=
